<svg version="1.1" xmlns="http://www.w3.org/2000/svg" viewBox="0 0 807.2598114013672 493" width="807.2598114013672" height="493">
  <!-- svg-source:excalidraw -->
  
  <defs>
    <style class="style-fonts">
      @font-face {
        font-family: "Virgil";
        src: url("https://excalidraw.com/Virgil.woff2");
      }
      @font-face {
        font-family: "Cascadia";
        src: url("https://excalidraw.com/Cascadia.woff2");
      }
    </style>
    
  </defs>
  <rect x="0" y="0" width="807.2598114013672" height="493" fill="#ffffff"></rect><g stroke-linecap="round" transform="translate(370.5 213) rotate(0 64.5 32)"><path d="M16 0 M16 0 C37.02 1.1, 59.49 -0.95, 113 0 M16 0 C45.04 0.72, 75.09 0.02, 113 0 M113 0 C124.24 0.5, 130.22 4.64, 129 16 M113 0 C125.04 0.12, 126.89 4.51, 129 16 M129 16 C130.49 26.51, 130.53 33.15, 129 48 M129 16 C129.27 27.41, 129.08 38.2, 129 48 M129 48 C128.64 59.02, 124.62 62.98, 113 64 M129 48 C130.79 60.21, 125.52 63.46, 113 64 M113 64 C93.66 63.42, 71.33 65.62, 16 64 M113 64 C84.86 62.7, 56.95 62.68, 16 64 M16 64 C6.86 62.46, -1.15 58.46, 0 48 M16 64 C4.85 63.05, 1.05 60.88, 0 48 M0 48 C-0.52 37.19, 1.9 26.83, 0 16 M0 48 C0.22 40.95, 0.29 35.47, 0 16 M0 16 C0.92 7.2, 6.32 1.67, 16 0 M0 16 C0.28 4.06, 4.67 1.85, 16 0" stroke="#1e1e1e" stroke-width="1" fill="none"></path></g><g transform="translate(417.16001892089844 232.5) rotate(0 17.839981079101562 12.5)"><text x="17.839981079101562" y="0" font-family="Virgil, Segoe UI Emoji" font-size="20px" fill="#1e1e1e" text-anchor="middle" style="white-space: pre;" direction="ltr" dominant-baseline="text-before-edge">Pod</text></g><g stroke-linecap="round" transform="translate(370.5 308) rotate(0 64.5 32)"><path d="M16 0 M16 0 C37.82 1.87, 62.61 0.61, 113 0 M16 0 C49.18 -0.34, 84.1 -0.42, 113 0 M113 0 C122.27 -0.04, 130.91 3.82, 129 16 M113 0 C124.49 -0.19, 129.76 5.54, 129 16 M129 16 C128.99 24.83, 129.55 35.88, 129 48 M129 16 C129.5 24.87, 128.34 33.41, 129 48 M129 48 C130.95 57.63, 124.27 62.7, 113 64 M129 48 C127.74 56.41, 124.49 64.81, 113 64 M113 64 C89.79 65.87, 64.88 62.98, 16 64 M113 64 C78.12 64.33, 44.34 64.8, 16 64 M16 64 C5.27 62.09, 0.97 57.32, 0 48 M16 64 C7.48 62.61, -2.02 58.93, 0 48 M0 48 C-1.85 38.15, 1.87 32.37, 0 16 M0 48 C-0.84 40.68, -0.03 33.76, 0 16 M0 16 C1.69 5.46, 4.82 1.52, 16 0 M0 16 C2.24 6.64, 7.56 1.38, 16 0" stroke="#1e1e1e" stroke-width="1" fill="none"></path></g><g transform="translate(417.16001892089844 327.5) rotate(0 17.839981079101562 12.5)"><text x="17.839981079101562" y="0" font-family="Virgil, Segoe UI Emoji" font-size="20px" fill="#1e1e1e" text-anchor="middle" style="white-space: pre;" direction="ltr" dominant-baseline="text-before-edge">Pod</text></g><g stroke-linecap="round" transform="translate(370.5 401) rotate(0 64.5 32)"><path d="M16 0 M16 0 C38.29 -0.37, 62.76 -2.59, 113 0 M16 0 C46.17 1.33, 78.13 0.07, 113 0 M113 0 C122.39 1.77, 129.21 5.9, 129 16 M113 0 C123.33 -0.63, 127.99 6.04, 129 16 M129 16 C127.12 26.4, 127.19 37.54, 129 48 M129 16 C128.38 27.3, 129.43 38.89, 129 48 M129 48 C128.49 57.24, 123.85 64.31, 113 64 M129 48 C127.22 58.97, 124.76 65.88, 113 64 M113 64 C87.37 62.78, 65.87 65.07, 16 64 M113 64 C80.25 63.4, 45.58 64.33, 16 64 M16 64 C3.42 63.19, 0.15 59.27, 0 48 M16 64 C4.13 61.73, -0.74 56.57, 0 48 M0 48 C0.29 41.24, 1.89 30.62, 0 16 M0 48 C0.36 41.46, -0.62 33.35, 0 16 M0 16 C-1.32 3.42, 3.48 1.79, 16 0 M0 16 C1.81 3.58, 7.14 1, 16 0" stroke="#1e1e1e" stroke-width="1" fill="none"></path></g><g transform="translate(417.16001892089844 420.5) rotate(0 17.839981079101562 12.5)"><text x="17.839981079101562" y="0" font-family="Virgil, Segoe UI Emoji" font-size="20px" fill="#1e1e1e" text-anchor="middle" style="white-space: pre;" direction="ltr" dominant-baseline="text-before-edge">Pod</text></g><g stroke-linecap="round" transform="translate(180 308.5) rotate(0 64.5 32)"><path d="M16 0 M16 0 C54.29 -1.09, 89.06 -0.41, 113 0 M16 0 C47.11 0.94, 78.01 -0.21, 113 0 M113 0 C123.99 -1.84, 127.72 5.95, 129 16 M113 0 C122.21 -1.59, 129.03 3.99, 129 16 M129 16 C128.05 29.59, 130.9 42, 129 48 M129 16 C129.03 27.6, 129.52 41.89, 129 48 M129 48 C128.53 56.79, 123.02 62.66, 113 64 M129 48 C129.33 60.6, 125.08 64.45, 113 64 M113 64 C79 65.78, 43.5 66.33, 16 64 M113 64 C79.59 63.61, 46.27 63.92, 16 64 M16 64 C6.54 65.38, 1.26 58.99, 0 48 M16 64 C6.48 65.02, 0.07 60.13, 0 48 M0 48 C-0.48 41.39, -1.46 30.99, 0 16 M0 48 C0.34 36.79, 0.38 26.92, 0 16 M0 16 C1.05 6.94, 5.85 -1.31, 16 0 M0 16 C2.08 5.56, 3.96 -0.2, 16 0" stroke="#1e1e1e" stroke-width="1" fill="none"></path></g><g transform="translate(210 328) rotate(0 33.75996398925781 12.5)"><text x="33.75996398925781" y="0" font-family="Virgil, Segoe UI Emoji" font-size="20px" fill="#1e1e1e" text-anchor="middle" style="white-space: pre;" direction="ltr" dominant-baseline="text-before-edge">Service</text></g><g stroke-linecap="round" transform="translate(370.5 96) rotate(0 64.5 32)"><path d="M16 0 M16 0 C39.95 -0.54, 63.8 0.96, 113 0 M16 0 C41.48 0.93, 65.97 0.19, 113 0 M113 0 C125.28 -0.6, 129.99 5.01, 129 16 M113 0 C123.01 -0.04, 127.96 5.49, 129 16 M129 16 C128.35 26.51, 130.93 34.36, 129 48 M129 16 C128.19 23.56, 129.17 31.97, 129 48 M129 48 C127.57 58.44, 122.86 62.54, 113 64 M129 48 C129.38 60.45, 122.13 64.48, 113 64 M113 64 C82.37 63.09, 54.18 63.5, 16 64 M113 64 C76.07 64.76, 40.01 64.13, 16 64 M16 64 C4.54 65.27, 0.92 59.59, 0 48 M16 64 C6.21 65.87, 0.51 58.92, 0 48 M0 48 C-1.02 39.99, 1.79 33.73, 0 16 M0 48 C-0.56 40.72, 1 31.65, 0 16 M0 16 C-0.29 6.8, 7.07 1.26, 16 0 M0 16 C-0.93 5.31, 6.82 1.39, 16 0" stroke="#868e96" stroke-width="1" fill="none"></path></g><g transform="translate(384.11004638671875 115.5) rotate(0 50.88995361328125 12.5)"><text x="50.88995361328125" y="0" font-family="Virgil, Segoe UI Emoji" font-size="20px" fill="#868e96" text-anchor="middle" style="white-space: pre;" direction="ltr" dominant-baseline="text-before-edge">ReplicaSet</text></g><g stroke-linecap="round" transform="translate(370.5 10) rotate(0 64.5 32)"><path d="M16 0 M16 0 C45.85 2.4, 76.13 0.95, 113 0 M16 0 C53.16 -0.55, 91.25 -0.33, 113 0 M113 0 C122.24 0.31, 130.22 4.92, 129 16 M113 0 C121.65 2.06, 129.19 3.57, 129 16 M129 16 C129.97 28.95, 130.43 42.61, 129 48 M129 16 C128.56 23.49, 129.04 30.83, 129 48 M129 48 C127.87 59.72, 122.68 62.05, 113 64 M129 48 C128.97 57.77, 124.82 65.31, 113 64 M113 64 C91.94 65.39, 73.72 63.89, 16 64 M113 64 C87.09 64.45, 61.13 64.56, 16 64 M16 64 C5.6 64.03, -0.31 60.52, 0 48 M16 64 C7.58 64.88, 0.64 59.67, 0 48 M0 48 C0 41.66, 1.17 36.4, 0 16 M0 48 C-0.12 36.85, 0.31 24.45, 0 16 M0 16 C-1.22 7.18, 6.47 1.49, 16 0 M0 16 C0.52 3.4, 7.55 -1.8, 16 0" stroke="#1e1e1e" stroke-width="1" fill="none"></path></g><g transform="translate(381.82005310058594 29.5) rotate(0 53.17994689941406 12.5)"><text x="53.17994689941406" y="0" font-family="Virgil, Segoe UI Emoji" font-size="20px" fill="#1e1e1e" text-anchor="middle" style="white-space: pre;" direction="ltr" dominant-baseline="text-before-edge">Deployment</text></g><g stroke-linecap="round" transform="translate(351.5 197) rotate(0 83.5 143)"><path d="M32 0 M32 0 C71.08 1.1, 112.5 -2.66, 135 0 M135 0 C158.28 -1.52, 165.23 11.76, 167 32 M167 32 C165.7 120.81, 165.59 206.44, 167 254 M167 254 C168.73 276.9, 156.78 284.32, 135 286 M135 286 C96.43 285.97, 56.59 286.61, 32 286 M32 286 C11.6 287.36, 0.46 275.67, 0 254 M0 254 C1.59 166.5, 1.11 76.36, 0 32 M0 32 C0.67 10.38, 10.44 -0.49, 32 0" stroke="#1e1e1e" stroke-width="1.5" fill="none" stroke-dasharray="8 9"></path></g><g stroke-linecap="round"><g transform="translate(434.34082890137677 77) rotate(0 0.6591710986232329 7.5141700395848545)"><path d="M1.08 -0.31 C1.24 2.43, 1.02 12.69, 0.87 15.35 M0.18 -1.52 C0.28 1.47, 0.49 13.5, 0.38 16.55" stroke="#1e1e1e" stroke-width="1" fill="none"></path></g><g transform="translate(434.34082890137677 77) rotate(0 0.6591710986232329 7.5141700395848545)"><path d="M-2.53 9.6 C-2.04 11.3, -1.06 13.56, -0.35 16.25 M-2.49 9.03 C-1.46 11.3, -0.47 13.89, 0.33 16.26" stroke="#1e1e1e" stroke-width="1" fill="none"></path></g><g transform="translate(434.34082890137677 77) rotate(0 0.6591710986232329 7.5141700395848545)"><path d="M2.94 9.63 C1.85 11.37, 1.25 13.62, -0.35 16.25 M2.98 9.06 C2.36 11.3, 1.7 13.87, 0.33 16.26" stroke="#1e1e1e" stroke-width="1" fill="none"></path></g></g><mask></mask><g stroke-linecap="round"><g transform="translate(435.42376824771486 161) rotate(0 -0.42376824771491783 15.386691025188185)"><path d="M-0.04 -0.33 C-0.09 4.93, -1.54 25.74, -1.48 31.21 M-1.52 -1.55 C-1.1 3.88, 0.43 27, 0.67 32.33" stroke="#1e1e1e" stroke-width="1" fill="none"></path></g><g transform="translate(435.42376824771486 161) rotate(0 -0.42376824771491783 15.386691025188185)"><path d="M-6.1 16.21 C-5.49 21.53, -2.52 22.44, -0.32 32.72 M-5.59 17.11 C-3.55 21.39, -2.08 26.95, 0.69 33.03" stroke="#1e1e1e" stroke-width="1" fill="none"></path></g><g transform="translate(435.42376824771486 161) rotate(0 -0.42376824771491783 15.386691025188185)"><path d="M4.82 15.58 C3.24 21.02, 4.02 22.06, -0.32 32.72 M5.33 16.48 C3.97 21.01, 2.05 26.76, 0.69 33.03" stroke="#1e1e1e" stroke-width="1" fill="none"></path></g></g><mask></mask><g stroke-linecap="round"><g transform="translate(310.5 337.9936974789915) rotate(0 26.730521223773223 -44.35685598101773)"><path d="M0.22 -0.86 C2.33 -11.59, 4.04 -49.37, 13.1 -64.24 C22.16 -79.1, 47.93 -85.91, 54.59 -90.02 M-1.12 1.31 C0.89 -9.78, 3.52 -50.87, 12.73 -65.96 C21.93 -81.05, 47.45 -85.61, 54.13 -89.25" stroke="#1e1e1e" stroke-width="1" fill="none"></path></g><g transform="translate(310.5 337.9936974789915) rotate(0 26.730521223773223 -44.35685598101773)"><path d="M34.29 -71.73 C43.13 -77.88, 46.32 -85.72, 54.26 -88.38 M35.81 -73.4 C41.21 -77.91, 46.66 -84.09, 53.17 -89.54" stroke="#1e1e1e" stroke-width="1" fill="none"></path></g><g transform="translate(310.5 337.9936974789915) rotate(0 26.730521223773223 -44.35685598101773)"><path d="M28.51 -87.23 C39.31 -88.19, 44.44 -90.84, 54.26 -88.38 M30.04 -88.9 C37.19 -88.43, 44.46 -89.69, 53.17 -89.54" stroke="#1e1e1e" stroke-width="1" fill="none"></path></g></g><mask></mask><g stroke-linecap="round"><g transform="translate(310 345.57357927144136) rotate(0 28.675552567844306 46.0197438354669)"><path d="M0.32 0.96 C3.76 12.7, 11.53 55.42, 21.19 70.32 C30.86 85.21, 52.14 86.95, 58.32 90.35 M-0.97 0.41 C2.32 12.37, 10.78 56.59, 20.61 71.79 C30.44 87, 51.6 88.27, 57.99 91.63" stroke="#1e1e1e" stroke-width="1" fill="none"></path></g><g transform="translate(310 345.57357927144136) rotate(0 28.675552567844306 46.0197438354669)"><path d="M38.57 93.6 C44.1 93.48, 51.47 93.09, 58.45 92.61 M36.82 93.42 C43.06 92.24, 46.72 91.44, 58.03 91.54" stroke="#1e1e1e" stroke-width="1" fill="none"></path></g><g transform="translate(310 345.57357927144136) rotate(0 28.675552567844306 46.0197438354669)"><path d="M42.95 79.91 C46.94 84.55, 52.79 88.93, 58.45 92.61 M41.2 79.72 C46.3 81.97, 48.86 84.59, 58.03 91.54" stroke="#1e1e1e" stroke-width="1" fill="none"></path></g></g><mask></mask><g stroke-linecap="round"><g transform="translate(311.5 339.91357470110523) rotate(0 27.118232318758942 0.5864252988947669)"><path d="M-0.61 -0.57 C8.71 -0.44, 45.64 1.32, 54.85 1.56 M1.27 1.74 C10.61 1.45, 45.53 -0.33, 54.34 -0.28" stroke="#1e1e1e" stroke-width="1" fill="none"></path></g><g transform="translate(311.5 339.91357470110523) rotate(0 27.118232318758942 0.5864252988947669)"><path d="M28.27 11.04 C35.33 8.69, 39.35 6.63, 56.06 1.58 M28.69 8.78 C38.3 5.61, 48.18 3.21, 54.24 0.66" stroke="#1e1e1e" stroke-width="1" fill="none"></path></g><g transform="translate(311.5 339.91357470110523) rotate(0 27.118232318758942 0.5864252988947669)"><path d="M27.78 -7.43 C35.06 -5.92, 39.18 -4.13, 56.06 1.58 M28.2 -9.68 C37.87 -6.07, 47.94 -1.68, 54.24 0.66" stroke="#1e1e1e" stroke-width="1" fill="none"></path></g></g><mask></mask><g stroke-linecap="round" transform="translate(590 269) rotate(0 64.5 32)"><path d="M16 0 M16 0 C36.08 2.14, 61.28 0.98, 113 0 M16 0 C41.69 0.32, 68.52 0.19, 113 0 M113 0 C124.44 -0.74, 127.1 5.35, 129 16 M113 0 C124.34 0.23, 130.33 4.19, 129 16 M129 16 C130.05 27.38, 130.8 38.84, 129 48 M129 16 C129.68 27.71, 128.85 39.98, 129 48 M129 48 C129.37 57.17, 124.28 65.98, 113 64 M129 48 C127.39 56.39, 123.62 62.64, 113 64 M113 64 C89.24 64.42, 63.02 64.2, 16 64 M113 64 C77.93 63.12, 42.16 63.47, 16 64 M16 64 C7.02 64.16, -1.97 58.76, 0 48 M16 64 C5.63 65.58, 0.29 58.36, 0 48 M0 48 C1.44 40.41, -1.72 32.58, 0 16 M0 48 C-0.49 38.54, 0.86 26.8, 0 16 M0 16 C1.91 7.02, 6.7 1.7, 16 0 M0 16 C-1.21 4.21, 3.33 -0.68, 16 0" stroke="#1e1e1e" stroke-width="1" fill="none"></path></g><g transform="translate(606.5300445556641 288.5) rotate(0 47.96995544433594 12.5)"><text x="47.96995544433594" y="0" font-family="Virgil, Segoe UI Emoji" font-size="20px" fill="#1e1e1e" text-anchor="middle" style="white-space: pre;" direction="ltr" dominant-baseline="text-before-edge">ConfigMap</text></g><g stroke-linecap="round" transform="translate(590 348) rotate(0 64.5 32)"><path d="M16 0 M16 0 C36.65 -2.12, 55.19 -1.49, 113 0 M16 0 C37.2 1.41, 57.93 1.03, 113 0 M113 0 C121.78 -0.49, 129.4 6.52, 129 16 M113 0 C125.43 -0.54, 131.29 6.93, 129 16 M129 16 C128.51 24.12, 130.04 36.72, 129 48 M129 16 C129.1 28.69, 129.67 40.92, 129 48 M129 48 C130.59 58.04, 125.13 63.74, 113 64 M129 48 C127.4 58.43, 122.22 62.73, 113 64 M113 64 C76.76 63.91, 38.51 63.67, 16 64 M113 64 C82.24 64.46, 50.64 63.38, 16 64 M16 64 C6.16 62.81, -0.59 59.58, 0 48 M16 64 C3.92 63.85, -0.73 56.47, 0 48 M0 48 C0.99 36.39, 1.27 28.79, 0 16 M0 48 C-0.59 37.65, 0.29 25.02, 0 16 M0 16 C-1.02 4.42, 5.08 -0.68, 16 0 M0 16 C-1.85 4.51, 4.85 -1.3, 16 0" stroke="#1e1e1e" stroke-width="1" fill="none"></path></g><g transform="translate(622.5100326538086 367.5) rotate(0 31.989967346191406 12.5)"><text x="31.989967346191406" y="0" font-family="Virgil, Segoe UI Emoji" font-size="20px" fill="#1e1e1e" text-anchor="middle" style="white-space: pre;" direction="ltr" dominant-baseline="text-before-edge">Secret</text></g><g stroke-linecap="round"><g transform="translate(589.5 301) rotate(0 -46.66976844966405 -27.9928337365389)"><path d="M-0.51 -0.37 C-15.98 -9.78, -77.42 -46.28, -92.82 -55.61" stroke="#1e1e1e" stroke-width="1.5" fill="none" stroke-dasharray="1.5 7"></path></g></g><mask></mask><g stroke-linecap="round"><g transform="translate(586.5 306) rotate(0 -44.67269689738748 15.648066207766533)"><path d="M0.3 -0.36 C-14.75 5.05, -74.91 26.51, -89.65 31.65" stroke="#1e1e1e" stroke-width="1.5" fill="none" stroke-dasharray="1.5 7"></path></g></g><mask></mask><g stroke-linecap="round"><g transform="translate(587.5 307) rotate(0 -45.42509119808676 60.022777155041666)"><path d="M-0.82 0.23 C-15.67 20.05, -75.16 99.84, -90.03 119.82" stroke="#1e1e1e" stroke-width="1.5" fill="none" stroke-dasharray="1.5 7"></path></g></g><mask></mask><g stroke-linecap="round"><g transform="translate(590.5 377) rotate(0 -45.13546783626077 -63.16792414486409)"><path d="M0.19 0.96 C-14.96 -20.31, -75.49 -105.74, -90.47 -127.3" stroke="#1e1e1e" stroke-width="1.5" fill="none" stroke-dasharray="1.5 7"></path></g></g><mask></mask><g stroke-linecap="round"><g transform="translate(589.5 380) rotate(0 -43.6172321587801 -20.713536474108707)"><path d="M-0.38 -0.21 C-14.76 -7.03, -72.48 -34.42, -86.85 -41.21" stroke="#1e1e1e" stroke-width="1.5" fill="none" stroke-dasharray="1.5 7"></path></g></g><mask></mask><g stroke-linecap="round"><g transform="translate(590.5 383) rotate(0 -46.466342279315086 23.991835185885463)"><path d="M-0.84 -0.66 C-16.18 7.29, -76.74 40.63, -92.09 48.64" stroke="#1e1e1e" stroke-width="1.5" fill="none" stroke-dasharray="1.5 7"></path></g></g><mask></mask><g transform="translate(187.5 262.5) rotate(0 56.49595642089844 20)"><text x="56.49595642089844" y="0" font-family="Virgil, Segoe UI Emoji" font-size="16px" fill="#1971c2" text-anchor="middle" style="white-space: pre;" direction="ltr" dominant-baseline="text-before-edge">routes traffic</text><text x="56.49595642089844" y="20" font-family="Virgil, Segoe UI Emoji" font-size="16px" fill="#1971c2" text-anchor="middle" style="white-space: pre;" direction="ltr" dominant-baseline="text-before-edge">(load balance)</text></g><g transform="translate(547.5 243) rotate(0 124.8799057006836 10)"><text x="124.8799057006836" y="0" font-family="Virgil, Segoe UI Emoji" font-size="16px" fill="#1971c2" text-anchor="middle" style="white-space: pre;" direction="ltr" dominant-baseline="text-before-edge">configures application (e.g. ENV)</text></g><g transform="translate(514.5 64) rotate(0 89.88794708251953 20)"><text x="89.88794708251953" y="0" font-family="Virgil, Segoe UI Emoji" font-size="16px" fill="#1971c2" text-anchor="middle" style="white-space: pre;" direction="ltr" dominant-baseline="text-before-edge">configures what to run</text><text x="89.88794708251953" y="20" font-family="Virgil, Segoe UI Emoji" font-size="16px" fill="#1971c2" text-anchor="middle" style="white-space: pre;" direction="ltr" dominant-baseline="text-before-edge">(e.g. #replicas of pod)</text></g><g stroke-linecap="round" transform="translate(10 308.5) rotate(0 64.5 32)"><path d="M16 0 M16 0 C49.53 -0.53, 83.71 -0.84, 113 0 M16 0 C51.56 -1.35, 85.16 0.33, 113 0 M113 0 C121.9 1.93, 127.22 3.64, 129 16 M113 0 C124.78 -1.75, 130.13 6.68, 129 16 M129 16 C128.3 25.78, 129.14 35.78, 129 48 M129 16 C129.93 25.32, 129.7 36.09, 129 48 M129 48 C129.05 59.32, 124.64 62.57, 113 64 M129 48 C128.86 57.39, 123.71 65.44, 113 64 M113 64 C89.1 62.26, 64.61 63.52, 16 64 M113 64 C83.59 64.38, 52.52 63.77, 16 64 M16 64 C4.47 64.03, 0.43 57.58, 0 48 M16 64 C3.8 63.57, 2.03 59.63, 0 48 M0 48 C1.72 38.06, -1.59 30.49, 0 16 M0 48 C0.35 38.53, 0.3 28.99, 0 16 M0 16 C-1.02 6.28, 3.8 -1.99, 16 0 M0 16 C0.3 5.91, 6.22 0.3, 16 0" stroke="#1e1e1e" stroke-width="1" fill="none"></path></g><g transform="translate(40 328) rotate(0 35.75996398925781 12.5)"><text x="35.75996398925781" y="0" font-family="Virgil, Segoe UI Emoji" font-size="20px" fill="#1e1e1e" text-anchor="middle" style="white-space: pre;" direction="ltr" dominant-baseline="text-before-edge">Ingress</text></g><g stroke-linecap="round"><g transform="translate(142.5 340.5212647664314) rotate(0 17.017436698824156 -0.021264766431414728)"><path d="M-0.83 0.06 C4.95 0.03, 29 0.8, 34.86 0.92 M0.94 -0.96 C6.62 -0.79, 28.89 -0.69, 34.37 -0.72" stroke="#1e1e1e" stroke-width="1" fill="none"></path></g><g transform="translate(142.5 340.5212647664314) rotate(0 17.017436698824156 -0.021264766431414728)"><path d="M18.47 6.31 C24.67 3.89, 29.5 2.53, 33.8 -0.39 M18.46 4.79 C23.01 3.06, 26.31 2.4, 33.92 -1.29" stroke="#1e1e1e" stroke-width="1" fill="none"></path></g><g transform="translate(142.5 340.5212647664314) rotate(0 17.017436698824156 -0.021264766431414728)"><path d="M18.47 -5.32 C24.78 -4.08, 29.6 -1.77, 33.8 -0.39 M18.46 -6.84 C22.96 -5.47, 26.26 -3.03, 33.92 -1.29" stroke="#1e1e1e" stroke-width="1" fill="none"></path></g></g><mask></mask><g transform="translate(14.004043579101562 261) rotate(0 59.86396026611328 20)"><text x="59.86396026611328" y="0" font-family="Virgil, Segoe UI Emoji" font-size="16px" fill="#1971c2" text-anchor="middle" style="white-space: pre;" direction="ltr" dominant-baseline="text-before-edge">Expose service</text><text x="59.86396026611328" y="20" font-family="Virgil, Segoe UI Emoji" font-size="16px" fill="#1971c2" text-anchor="middle" style="white-space: pre;" direction="ltr" dominant-baseline="text-before-edge">outside cluster</text></g></svg>